<svg width="200" height="200" viewBox="0 0 200 200" fill="none" xmlns="http://www.w3.org/2000/svg">
  <path d="M40 60H60V140H40V60Z" fill="#409EFF"/>
  <path d="M80 60C80 60 100 60 110 60C120 60 130 70 130 80C130 90 120 100 110 100C100 100 80 100 80 100V140H100V120H110C130 120 150 100 150 80C150 60 130 40 110 40C90 40 80 40 80 40V60Z" fill="#409EFF"/>
  <path d="M170 60H190V140H170V60Z" fill="#409EFF"/>
  <path d="M40 160H190V180H40V160Z" fill="#409EFF"/>
  <path d="M10 20H50L30 50L10 20Z" fill="#F56C6C"/>
  <path d="M45 35H15V45H45V35Z" fill="#F56C6C"/>
</svg> 